<svg width="371" height="117" viewBox="0 0 371 117" fill="none" xmlns="http://www.w3.org/2000/svg">
<rect width="22.2288" height="66.2478" rx="3" transform="matrix(-1 0 0 1 88.9316 5)" fill="#2563FF"/>
<rect width="22.2288" height="51.0982" rx="3" transform="matrix(-1 0 0 1 22.229 34.5306)" fill="#2563FF"/>
<rect width="22.2288" height="88.4272" rx="3" transform="matrix(-1 0 0 1 55.5801 19.538)" fill="#FF6B2B"/>
<path d="M140.131 66C139.603 66 139.317 65.758 139.273 65.274L138.019 58.344C138.019 58.124 137.887 58.014 137.623 58.014H127.987C127.723 58.014 127.591 58.124 127.591 58.344L126.337 65.274C126.293 65.758 126.007 66 125.479 66H119.473C118.857 66 118.615 65.714 118.747 65.142L128.515 20.526C128.603 20.042 128.889 19.8 129.373 19.8H136.369C136.853 19.8 137.139 20.042 137.227 20.526L146.995 65.142V65.406C146.995 65.802 146.753 66 146.269 66H140.131ZM128.779 51.678C128.735 51.898 128.845 52.008 129.109 52.008H136.435C136.699 52.008 136.809 51.898 136.765 51.678L132.937 30.822C132.893 30.69 132.827 30.624 132.739 30.624C132.651 30.624 132.585 30.69 132.541 30.822L128.779 51.678ZM154.259 66C154.039 66 153.841 65.934 153.665 65.802C153.533 65.626 153.467 65.428 153.467 65.208V20.592C153.467 20.372 153.533 20.196 153.665 20.064C153.841 19.888 154.039 19.8 154.259 19.8H160.331C160.551 19.8 160.727 19.888 160.859 20.064C161.035 20.196 161.123 20.372 161.123 20.592V59.07C161.123 59.29 161.233 59.4 161.453 59.4H175.709C175.929 59.4 176.105 59.488 176.237 59.664C176.413 59.796 176.501 59.972 176.501 60.192V65.208C176.501 65.428 176.413 65.626 176.237 65.802C176.105 65.934 175.929 66 175.709 66H154.259ZM193.536 66.528C189.884 66.528 186.936 65.428 184.692 63.228C182.448 61.028 181.326 58.146 181.326 54.582V52.866C181.326 52.646 181.392 52.47 181.524 52.338C181.7 52.162 181.898 52.074 182.118 52.074H188.124C188.344 52.074 188.52 52.162 188.652 52.338C188.828 52.47 188.916 52.646 188.916 52.866V54.186C188.916 55.902 189.334 57.288 190.17 58.344C191.05 59.4 192.172 59.928 193.536 59.928C194.9 59.928 196.022 59.444 196.902 58.476C197.782 57.464 198.222 56.144 198.222 54.516C198.222 53.372 197.98 52.382 197.496 51.546C197.012 50.71 196.33 49.918 195.45 49.17C194.57 48.422 193.162 47.344 191.226 45.936C189.026 44.352 187.244 42.944 185.88 41.712C184.56 40.48 183.438 39.006 182.514 37.29C181.634 35.53 181.194 33.506 181.194 31.218C181.194 27.566 182.294 24.662 184.494 22.506C186.694 20.35 189.598 19.272 193.206 19.272C196.858 19.272 199.806 20.416 202.05 22.704C204.294 24.948 205.416 27.94 205.416 31.68V33.264C205.416 33.484 205.328 33.682 205.152 33.858C205.02 33.99 204.844 34.056 204.624 34.056H198.684C198.464 34.056 198.266 33.99 198.09 33.858C197.958 33.682 197.892 33.484 197.892 33.264V31.548C197.892 29.832 197.452 28.468 196.572 27.456C195.736 26.4 194.614 25.872 193.206 25.872C191.886 25.872 190.808 26.356 189.972 27.324C189.136 28.248 188.718 29.546 188.718 31.218C188.718 32.802 189.158 34.144 190.038 35.244C190.962 36.344 192.744 37.862 195.384 39.798C198.068 41.778 200.092 43.406 201.456 44.682C202.82 45.914 203.876 47.278 204.624 48.774C205.372 50.27 205.746 52.052 205.746 54.12C205.746 57.86 204.624 60.874 202.38 63.162C200.136 65.406 197.188 66.528 193.536 66.528ZM236.357 19.8C236.577 19.8 236.753 19.888 236.885 20.064C237.061 20.196 237.149 20.372 237.149 20.592V25.608C237.149 25.828 237.061 26.026 236.885 26.202C236.753 26.334 236.577 26.4 236.357 26.4H227.975C227.755 26.4 227.645 26.51 227.645 26.73V65.208C227.645 65.428 227.557 65.626 227.381 65.802C227.249 65.934 227.073 66 226.853 66H220.781C220.561 66 220.363 65.934 220.187 65.802C220.055 65.626 219.989 65.428 219.989 65.208V26.73C219.989 26.51 219.879 26.4 219.659 26.4H211.739C211.519 26.4 211.321 26.334 211.145 26.202C211.013 26.026 210.947 25.828 210.947 25.608V20.592C210.947 20.372 211.013 20.196 211.145 20.064C211.321 19.888 211.519 19.8 211.739 19.8H236.357ZM267.519 25.608C267.519 25.828 267.431 26.026 267.255 26.202C267.123 26.334 266.947 26.4 266.727 26.4H252.471C252.251 26.4 252.141 26.51 252.141 26.73V39.204C252.141 39.424 252.251 39.534 252.471 39.534H260.919C261.139 39.534 261.315 39.622 261.447 39.798C261.623 39.93 261.711 40.106 261.711 40.326V45.408C261.711 45.628 261.623 45.826 261.447 46.002C261.315 46.134 261.139 46.2 260.919 46.2H252.471C252.251 46.2 252.141 46.31 252.141 46.53V59.07C252.141 59.29 252.251 59.4 252.471 59.4H266.727C266.947 59.4 267.123 59.488 267.255 59.664C267.431 59.796 267.519 59.972 267.519 60.192V65.208C267.519 65.428 267.431 65.626 267.255 65.802C267.123 65.934 266.947 66 266.727 66H245.277C245.057 66 244.859 65.934 244.683 65.802C244.551 65.626 244.485 65.428 244.485 65.208V20.592C244.485 20.372 244.551 20.196 244.683 20.064C244.859 19.888 245.057 19.8 245.277 19.8H266.727C266.947 19.8 267.123 19.888 267.255 20.064C267.431 20.196 267.519 20.372 267.519 20.592V25.608ZM293.891 20.592C293.891 20.372 293.957 20.196 294.089 20.064C294.265 19.888 294.463 19.8 294.683 19.8H300.689C300.909 19.8 301.085 19.888 301.217 20.064C301.393 20.196 301.481 20.372 301.481 20.592V65.208C301.481 65.428 301.393 65.626 301.217 65.802C301.085 65.934 300.909 66 300.689 66H293.759C293.319 66 293.033 65.78 292.901 65.34L283.067 37.356C283.023 37.224 282.935 37.18 282.803 37.224C282.715 37.224 282.671 37.29 282.671 37.422L282.737 65.208C282.737 65.428 282.649 65.626 282.473 65.802C282.341 65.934 282.165 66 281.945 66H275.939C275.719 66 275.521 65.934 275.345 65.802C275.213 65.626 275.147 65.428 275.147 65.208V20.592C275.147 20.372 275.213 20.196 275.345 20.064C275.521 19.888 275.719 19.8 275.939 19.8H282.737C283.177 19.8 283.463 20.02 283.595 20.46L293.495 48.246C293.539 48.378 293.605 48.444 293.693 48.444C293.825 48.4 293.891 48.312 293.891 48.18V20.592Z" fill="#0A0F1E"/>
<path d="M135.874 95.4361H132.421C132.322 94.8698 132.14 94.3681 131.876 93.9311C131.611 93.4879 131.282 93.1125 130.888 92.8047C130.494 92.4969 130.045 92.2661 129.54 92.1122C129.041 91.9522 128.503 91.8722 127.924 91.8722C126.896 91.8722 125.985 92.1307 125.191 92.6477C124.397 93.1586 123.775 93.9096 123.326 94.9006C122.877 95.8854 122.652 97.0888 122.652 98.5107C122.652 99.9572 122.877 101.176 123.326 102.167C123.782 103.152 124.403 103.897 125.191 104.401C125.985 104.9 126.893 105.149 127.915 105.149C128.481 105.149 129.011 105.075 129.503 104.928C130.002 104.774 130.448 104.549 130.842 104.254C131.242 103.958 131.577 103.595 131.848 103.164C132.125 102.733 132.316 102.241 132.421 101.687L135.874 101.705C135.744 102.604 135.464 103.447 135.033 104.235C134.609 105.023 134.052 105.719 133.362 106.322C132.673 106.919 131.867 107.387 130.943 107.725C130.02 108.058 128.995 108.224 127.869 108.224C126.207 108.224 124.723 107.839 123.418 107.07C122.113 106.3 121.086 105.189 120.335 103.737C119.584 102.284 119.208 100.542 119.208 98.5107C119.208 96.4733 119.587 94.7313 120.344 93.2848C121.101 91.8322 122.132 90.7211 123.437 89.9517C124.742 89.1823 126.219 88.7976 127.869 88.7976C128.921 88.7976 129.9 88.9453 130.805 89.2408C131.71 89.5362 132.516 89.9702 133.224 90.5426C133.932 91.1089 134.513 91.8045 134.969 92.6293C135.43 93.4479 135.732 94.3835 135.874 95.4361ZM144.85 107.965H141.194L147.851 89.0561H152.08L158.746 107.965H155.09L150.039 92.934H149.892L144.85 107.965ZM144.97 100.551H154.942V103.303H144.97V100.551ZM164.877 107.965V89.0561H171.967C173.42 89.0561 174.639 89.327 175.624 89.8686C176.615 90.4103 177.363 91.1551 177.867 92.103C178.378 93.0448 178.634 94.1158 178.634 95.3161C178.634 96.5287 178.378 97.6058 177.867 98.5476C177.356 99.4894 176.602 100.231 175.605 100.773C174.608 101.308 173.38 101.576 171.921 101.576H167.222V98.76H171.46C172.309 98.76 173.005 98.6122 173.546 98.3168C174.088 98.0213 174.488 97.6151 174.747 97.098C175.011 96.581 175.144 95.987 175.144 95.3161C175.144 94.6451 175.011 94.0542 174.747 93.5433C174.488 93.0324 174.085 92.6354 173.537 92.3523C172.995 92.063 172.297 91.9183 171.441 91.9183H168.302V107.965H164.877ZM188.674 89.0561V107.965H185.249V89.0561H188.674ZM195.193 91.9276V89.0561H210.279V91.9276H204.435V107.965H201.037V91.9276H195.193ZM216.971 107.965H213.315L219.972 89.0561H224.2L230.866 107.965H227.21L222.16 92.934H222.012L216.971 107.965ZM217.091 100.551H227.062V103.303H217.091V100.551ZM236.997 107.965V89.0561H240.422V105.094H248.751V107.965H236.997ZM278.12 95.0945C277.967 94.5959 277.754 94.1496 277.483 93.7557C277.219 93.3556 276.899 93.014 276.523 92.7308C276.154 92.4477 275.729 92.2353 275.249 92.0938C274.769 91.946 274.246 91.8722 273.679 91.8722C272.664 91.8722 271.759 92.1276 270.965 92.6385C270.171 93.1494 269.546 93.9003 269.091 94.8913C268.641 95.8762 268.417 97.0765 268.417 98.4922C268.417 99.9202 268.641 101.13 269.091 102.121C269.54 103.112 270.165 103.866 270.965 104.383C271.765 104.894 272.695 105.149 273.753 105.149C274.713 105.149 275.544 104.964 276.246 104.595C276.954 104.226 277.499 103.703 277.88 103.026C278.262 102.342 278.453 101.542 278.453 100.625L279.228 100.745H274.095V98.0675H281.767V100.339C281.767 101.958 281.423 103.358 280.733 104.54C280.044 105.722 279.096 106.633 277.89 107.273C276.683 107.907 275.298 108.224 273.735 108.224C271.993 108.224 270.463 107.833 269.146 107.051C267.835 106.263 266.81 105.146 266.071 103.7C265.339 102.247 264.973 100.523 264.973 98.5291C264.973 97.0026 265.188 95.6392 265.619 94.4389C266.056 93.2386 266.665 92.2199 267.447 91.3828C268.229 90.5395 269.146 89.8994 270.199 89.4624C271.251 89.0192 272.396 88.7976 273.633 88.7976C274.68 88.7976 275.655 88.9515 276.56 89.2592C277.465 89.5609 278.268 89.9917 278.97 90.5519C279.678 91.112 280.259 91.7768 280.715 92.5462C281.17 93.3156 281.469 94.165 281.61 95.0945H278.12ZM288.72 107.965V89.0561H295.811C297.263 89.0561 298.482 89.3085 299.467 89.8132C300.458 90.318 301.206 91.0258 301.711 91.9368C302.221 92.8416 302.477 93.8973 302.477 95.1037C302.477 96.3163 302.218 97.3689 301.701 98.2614C301.19 99.1477 300.436 99.8341 299.439 100.32C298.442 100.8 297.217 101.04 295.765 101.04H290.714V98.1967H295.303C296.152 98.1967 296.848 98.0798 297.39 97.8459C297.931 97.6058 298.331 97.2581 298.59 96.8026C298.854 96.3409 298.987 95.7746 298.987 95.1037C298.987 94.4328 298.854 93.8603 298.59 93.3864C298.325 92.9063 297.922 92.5431 297.38 92.2969C296.839 92.0445 296.14 91.9183 295.284 91.9183H292.145V107.965H288.72ZM298.488 99.397L303.169 107.965H299.347L294.749 99.397H298.488ZM326.166 98.5107C326.166 100.548 325.785 102.293 325.021 103.746C324.264 105.192 323.23 106.3 321.919 107.07C320.614 107.839 319.134 108.224 317.478 108.224C315.822 108.224 314.339 107.839 313.028 107.07C311.723 106.294 310.689 105.183 309.925 103.737C309.168 102.284 308.79 100.542 308.79 98.5107C308.79 96.4733 309.168 94.7313 309.925 93.2848C310.689 91.8322 311.723 90.7211 313.028 89.9517C314.339 89.1823 315.822 88.7976 317.478 88.7976C319.134 88.7976 320.614 89.1823 321.919 89.9517C323.23 90.7211 324.264 91.8322 325.021 93.2848C325.785 94.7313 326.166 96.4733 326.166 98.5107ZM322.722 98.5107C322.722 97.0765 322.498 95.867 322.048 94.8821C321.605 93.8911 320.99 93.1432 320.202 92.6385C319.414 92.1276 318.506 91.8722 317.478 91.8722C316.45 91.8722 315.542 92.1276 314.754 92.6385C313.966 93.1432 313.348 93.8911 312.898 94.8821C312.455 95.867 312.234 97.0765 312.234 98.5107C312.234 99.9448 312.455 101.157 312.898 102.148C313.348 103.133 313.966 103.881 314.754 104.392C315.542 104.897 316.45 105.149 317.478 105.149C318.506 105.149 319.414 104.897 320.202 104.392C320.99 103.881 321.605 103.133 322.048 102.148C322.498 101.157 322.722 99.9448 322.722 98.5107ZM344.964 89.0561H348.39V101.41C348.39 102.764 348.07 103.955 347.43 104.983C346.796 106.011 345.903 106.814 344.752 107.393C343.601 107.965 342.256 108.251 340.717 108.251C339.172 108.251 337.824 107.965 336.673 107.393C335.522 106.814 334.63 106.011 333.996 104.983C333.362 103.955 333.045 102.764 333.045 101.41V89.0561H336.47V101.124C336.47 101.911 336.642 102.613 336.987 103.229C337.338 103.844 337.83 104.327 338.464 104.678C339.098 105.023 339.849 105.195 340.717 105.195C341.585 105.195 342.336 105.023 342.97 104.678C343.61 104.327 344.103 103.844 344.447 103.229C344.792 102.613 344.964 101.911 344.964 101.124V89.0561ZM355.753 107.965V89.0561H362.844C364.297 89.0561 365.515 89.327 366.5 89.8686C367.491 90.4103 368.239 91.1551 368.744 92.103C369.255 93.0448 369.51 94.1158 369.51 95.3161C369.51 96.5287 369.255 97.6058 368.744 98.5476C368.233 99.4894 367.479 100.231 366.482 100.773C365.485 101.308 364.257 101.576 362.798 101.576H358.098V98.76H362.336C363.186 98.76 363.881 98.6122 364.423 98.3168C364.964 98.0213 365.365 97.6151 365.623 97.098C365.888 96.581 366.02 95.987 366.02 95.3161C366.02 94.6451 365.888 94.0542 365.623 93.5433C365.365 93.0324 364.961 92.6354 364.414 92.3523C363.872 92.063 363.173 91.9183 362.318 91.9183H359.178V107.965H355.753Z" fill="#868280"/>
</svg>
