<svg width="371" height="117" viewBox="0 0 371 117" fill="none" xmlns="http://www.w3.org/2000/svg">
<rect width="22.2288" height="66.2478" rx="3" transform="matrix(-1 0 0 1 88.9316 5)" fill="#2563FF"/>
<rect width="22.2288" height="51.0982" rx="3" transform="matrix(-1 0 0 1 22.229 34.5306)" fill="#2563FF"/>
<rect width="22.2288" height="88.4272" rx="3" transform="matrix(-1 0 0 1 55.5801 19.538)" fill="#FF6B2B"/>
<path d="M140.131 66C139.603 66 139.317 65.758 139.273 65.274L138.019 58.344C138.019 58.124 137.887 58.014 137.623 58.014H127.987C127.723 58.014 127.591 58.124 127.591 58.344L126.337 65.274C126.293 65.758 126.007 66 125.479 66H119.473C118.857 66 118.615 65.714 118.747 65.142L128.515 20.526C128.603 20.042 128.889 19.8 129.373 19.8H136.369C136.853 19.8 137.139 20.042 137.227 20.526L146.995 65.142V65.406C146.995 65.802 146.753 66 146.269 66H140.131ZM128.779 51.678C128.735 51.898 128.845 52.008 129.109 52.008H136.435C136.699 52.008 136.809 51.898 136.765 51.678L132.937 30.822C132.893 30.69 132.827 30.624 132.739 30.624C132.651 30.624 132.585 30.69 132.541 30.822L128.779 51.678ZM154.259 66C154.039 66 153.841 65.934 153.665 65.802C153.533 65.626 153.467 65.428 153.467 65.208V20.592C153.467 20.372 153.533 20.196 153.665 20.064C153.841 19.888 154.039 19.8 154.259 19.8H160.331C160.551 19.8 160.727 19.888 160.859 20.064C161.035 20.196 161.123 20.372 161.123 20.592V59.07C161.123 59.29 161.233 59.4 161.453 59.4H175.709C175.929 59.4 176.105 59.488 176.237 59.664C176.413 59.796 176.501 59.972 176.501 60.192V65.208C176.501 65.428 176.413 65.626 176.237 65.802C176.105 65.934 175.929 66 175.709 66H154.259ZM193.536 66.528C189.884 66.528 186.936 65.428 184.692 63.228C182.448 61.028 181.326 58.146 181.326 54.582V52.866C181.326 52.646 181.392 52.47 181.524 52.338C181.7 52.162 181.898 52.074 182.118 52.074H188.124C188.344 52.074 188.52 52.162 188.652 52.338C188.828 52.47 188.916 52.646 188.916 52.866V54.186C188.916 55.902 189.334 57.288 190.17 58.344C191.05 59.4 192.172 59.928 193.536 59.928C194.9 59.928 196.022 59.444 196.902 58.476C197.782 57.464 198.222 56.144 198.222 54.516C198.222 53.372 197.98 52.382 197.496 51.546C197.012 50.71 196.33 49.918 195.45 49.17C194.57 48.422 193.162 47.344 191.226 45.936C189.026 44.352 187.244 42.944 185.88 41.712C184.56 40.48 183.438 39.006 182.514 37.29C181.634 35.53 181.194 33.506 181.194 31.218C181.194 27.566 182.294 24.662 184.494 22.506C186.694 20.35 189.598 19.272 193.206 19.272C196.858 19.272 199.806 20.416 202.05 22.704C204.294 24.948 205.416 27.94 205.416 31.68V33.264C205.416 33.484 205.328 33.682 205.152 33.858C205.02 33.99 204.844 34.056 204.624 34.056H198.684C198.464 34.056 198.266 33.99 198.09 33.858C197.958 33.682 197.892 33.484 197.892 33.264V31.548C197.892 29.832 197.452 28.468 196.572 27.456C195.736 26.4 194.614 25.872 193.206 25.872C191.886 25.872 190.808 26.356 189.972 27.324C189.136 28.248 188.718 29.546 188.718 31.218C188.718 32.802 189.158 34.144 190.038 35.244C190.962 36.344 192.744 37.862 195.384 39.798C198.068 41.778 200.092 43.406 201.456 44.682C202.82 45.914 203.876 47.278 204.624 48.774C205.372 50.27 205.746 52.052 205.746 54.12C205.746 57.86 204.624 60.874 202.38 63.162C200.136 65.406 197.188 66.528 193.536 66.528ZM236.357 19.8C236.577 19.8 236.753 19.888 236.885 20.064C237.061 20.196 237.149 20.372 237.149 20.592V25.608C237.149 25.828 237.061 26.026 236.885 26.202C236.753 26.334 236.577 26.4 236.357 26.4H227.975C227.755 26.4 227.645 26.51 227.645 26.73V65.208C227.645 65.428 227.557 65.626 227.381 65.802C227.249 65.934 227.073 66 226.853 66H220.781C220.561 66 220.363 65.934 220.187 65.802C220.055 65.626 219.989 65.428 219.989 65.208V26.73C219.989 26.51 219.879 26.4 219.659 26.4H211.739C211.519 26.4 211.321 26.334 211.145 26.202C211.013 26.026 210.947 25.828 210.947 25.608V20.592C210.947 20.372 211.013 20.196 211.145 20.064C211.321 19.888 211.519 19.8 211.739 19.8H236.357ZM267.519 25.608C267.519 25.828 267.431 26.026 267.255 26.202C267.123 26.334 266.947 26.4 266.727 26.4H252.471C252.251 26.4 252.141 26.51 252.141 26.73V39.204C252.141 39.424 252.251 39.534 252.471 39.534H260.919C261.139 39.534 261.315 39.622 261.447 39.798C261.623 39.93 261.711 40.106 261.711 40.326V45.408C261.711 45.628 261.623 45.826 261.447 46.002C261.315 46.134 261.139 46.2 260.919 46.2H252.471C252.251 46.2 252.141 46.31 252.141 46.53V59.07C252.141 59.29 252.251 59.4 252.471 59.4H266.727C266.947 59.4 267.123 59.488 267.255 59.664C267.431 59.796 267.519 59.972 267.519 60.192V65.208C267.519 65.428 267.431 65.626 267.255 65.802C267.123 65.934 266.947 66 266.727 66H245.277C245.057 66 244.859 65.934 244.683 65.802C244.551 65.626 244.485 65.428 244.485 65.208V20.592C244.485 20.372 244.551 20.196 244.683 20.064C244.859 19.888 245.057 19.8 245.277 19.8H266.727C266.947 19.8 267.123 19.888 267.255 20.064C267.431 20.196 267.519 20.372 267.519 20.592V25.608ZM293.891 20.592C293.891 20.372 293.957 20.196 294.089 20.064C294.265 19.888 294.463 19.8 294.683 19.8H300.689C300.909 19.8 301.085 19.888 301.217 20.064C301.393 20.196 301.481 20.372 301.481 20.592V65.208C301.481 65.428 301.393 65.626 301.217 65.802C301.085 65.934 300.909 66 300.689 66H293.759C293.319 66 293.033 65.78 292.901 65.34L283.067 37.356C283.023 37.224 282.935 37.18 282.803 37.224C282.715 37.224 282.671 37.29 282.671 37.422L282.737 65.208C282.737 65.428 282.649 65.626 282.473 65.802C282.341 65.934 282.165 66 281.945 66H275.939C275.719 66 275.521 65.934 275.345 65.802C275.213 65.626 275.147 65.428 275.147 65.208V20.592C275.147 20.372 275.213 20.196 275.345 20.064C275.521 19.888 275.719 19.8 275.939 19.8H282.737C283.177 19.8 283.463 20.02 283.595 20.46L293.495 48.246C293.539 48.378 293.605 48.444 293.693 48.444C293.825 48.4 293.891 48.312 293.891 48.18V20.592Z" fill="white"/>
<path d="M135.87 95.4409H132.417C132.319 94.8746 132.137 94.3729 131.872 93.9359C131.608 93.4927 131.278 93.1172 130.884 92.8095C130.491 92.5017 130.041 92.2709 129.536 92.117C129.038 91.9569 128.499 91.8769 127.921 91.8769C126.893 91.8769 125.982 92.1355 125.188 92.6525C124.394 93.1634 123.772 93.9143 123.323 94.9053C122.873 95.8902 122.649 97.0935 122.649 98.5154C122.649 99.9619 122.873 101.181 123.323 102.172C123.778 103.157 124.4 103.901 125.188 104.406C125.982 104.905 126.89 105.154 127.911 105.154C128.478 105.154 129.007 105.08 129.5 104.932C129.998 104.778 130.444 104.554 130.838 104.258C131.238 103.963 131.574 103.6 131.845 103.169C132.122 102.738 132.312 102.246 132.417 101.692L135.87 101.71C135.741 102.609 135.461 103.452 135.03 104.24C134.605 105.028 134.048 105.723 133.359 106.327C132.669 106.924 131.863 107.391 130.94 107.73C130.017 108.062 128.992 108.228 127.865 108.228C126.203 108.228 124.72 107.844 123.415 107.074C122.11 106.305 121.082 105.194 120.331 103.741C119.58 102.289 119.205 100.547 119.205 98.5154C119.205 96.478 119.583 94.7361 120.34 93.2896C121.098 91.8369 122.129 90.7259 123.433 89.9565C124.738 89.1871 126.216 88.8024 127.865 88.8024C128.918 88.8024 129.897 88.9501 130.801 89.2455C131.706 89.541 132.513 89.9749 133.22 90.5474C133.928 91.1137 134.51 91.8092 134.965 92.634C135.427 93.4527 135.729 94.3883 135.87 95.4409ZM144.847 107.97H141.191L147.848 89.0609H152.076L158.742 107.97H155.086L150.036 92.9387H149.888L144.847 107.97ZM144.967 100.556H154.939V103.307H144.967V100.556ZM164.873 107.97V89.0609H171.964C173.417 89.0609 174.635 89.3317 175.62 89.8734C176.611 90.415 177.359 91.1598 177.864 92.1078C178.375 93.0495 178.63 94.1205 178.63 95.3208C178.63 96.5334 178.375 97.6106 177.864 98.5524C177.353 99.4941 176.599 100.236 175.602 100.777C174.605 101.313 173.377 101.581 171.918 101.581H167.218V98.7647H171.456C172.306 98.7647 173.001 98.617 173.543 98.3215C174.084 98.0261 174.485 97.6198 174.743 97.1028C175.008 96.5857 175.14 95.9918 175.14 95.3208C175.14 94.6499 175.008 94.059 174.743 93.5481C174.485 93.0372 174.081 92.6402 173.534 92.357C172.992 92.0677 172.293 91.9231 171.438 91.9231H168.299V107.97H164.873ZM188.671 89.0609V107.97H185.246V89.0609H188.671ZM195.189 91.9323V89.0609H210.276V91.9323H204.431V107.97H201.034V91.9323H195.189ZM216.967 107.97H213.311L219.968 89.0609H224.197L230.863 107.97H227.207L222.156 92.9387H222.009L216.967 107.97ZM217.087 100.556H227.059V103.307H217.087V100.556ZM236.994 107.97V89.0609H240.419V105.099H248.747V107.97H236.994ZM278.117 95.0992C277.963 94.6007 277.751 94.1544 277.48 93.7605C277.215 93.3604 276.895 93.0187 276.52 92.7356C276.15 92.4525 275.726 92.2401 275.246 92.0985C274.765 91.9508 274.242 91.8769 273.676 91.8769C272.66 91.8769 271.756 92.1324 270.961 92.6433C270.167 93.1542 269.543 93.9051 269.087 94.8961C268.638 95.881 268.413 97.0812 268.413 98.497C268.413 99.925 268.638 101.135 269.087 102.126C269.537 103.117 270.161 103.871 270.961 104.388C271.762 104.898 272.691 105.154 273.75 105.154C274.71 105.154 275.541 104.969 276.243 104.6C276.951 104.231 277.495 103.707 277.877 103.03C278.259 102.347 278.449 101.547 278.449 100.63L279.225 100.75H274.091V98.0722H281.764V100.344C281.764 101.962 281.419 103.363 280.73 104.545C280.041 105.726 279.093 106.637 277.886 107.277C276.68 107.911 275.295 108.228 273.731 108.228C271.989 108.228 270.46 107.838 269.143 107.056C267.832 106.268 266.807 105.151 266.068 103.704C265.336 102.252 264.969 100.528 264.969 98.5339C264.969 97.0074 265.185 95.644 265.616 94.4437C266.053 93.2434 266.662 92.2247 267.444 91.3876C268.225 90.5443 269.143 89.9042 270.195 89.4671C271.248 89.0239 272.393 88.8024 273.63 88.8024C274.676 88.8024 275.652 88.9562 276.557 89.264C277.461 89.5656 278.265 89.9965 278.966 90.5566C279.674 91.1168 280.256 91.7815 280.711 92.5509C281.167 93.3203 281.466 94.1698 281.607 95.0992H278.117ZM288.716 107.97V89.0609H295.807C297.26 89.0609 298.479 89.3132 299.464 89.818C300.455 90.3227 301.202 91.0306 301.707 91.9416C302.218 92.8464 302.473 93.902 302.473 95.1085C302.473 96.3211 302.215 97.3736 301.698 98.2661C301.187 99.1525 300.433 99.8388 299.436 100.325C298.439 100.805 297.214 101.045 295.761 101.045H290.711V98.2015H295.299C296.149 98.2015 296.844 98.0846 297.386 97.8507C297.928 97.6106 298.328 97.2628 298.586 96.8073C298.851 96.3457 298.983 95.7794 298.983 95.1085C298.983 94.4375 298.851 93.8651 298.586 93.3911C298.322 92.911 297.919 92.5479 297.377 92.3016C296.835 92.0493 296.137 91.9231 295.281 91.9231H292.142V107.97H288.716ZM298.485 99.4018L303.166 107.97H299.343L294.745 99.4018H298.485ZM326.163 98.5154C326.163 100.553 325.781 102.298 325.018 103.751C324.261 105.197 323.227 106.305 321.916 107.074C320.611 107.844 319.13 108.228 317.475 108.228C315.819 108.228 314.335 107.844 313.024 107.074C311.719 106.299 310.685 105.188 309.922 103.741C309.165 102.289 308.786 100.547 308.786 98.5154C308.786 96.478 309.165 94.7361 309.922 93.2896C310.685 91.8369 311.719 90.7259 313.024 89.9565C314.335 89.1871 315.819 88.8024 317.475 88.8024C319.13 88.8024 320.611 89.1871 321.916 89.9565C323.227 90.7259 324.261 91.8369 325.018 93.2896C325.781 94.7361 326.163 96.478 326.163 98.5154ZM322.719 98.5154C322.719 97.0812 322.494 95.8717 322.045 94.8869C321.602 93.8959 320.986 93.148 320.198 92.6433C319.41 92.1324 318.503 91.8769 317.475 91.8769C316.447 91.8769 315.539 92.1324 314.751 92.6433C313.963 93.148 313.344 93.8959 312.895 94.8869C312.452 95.8717 312.23 97.0812 312.23 98.5154C312.23 99.9496 312.452 101.162 312.895 102.153C313.344 103.138 313.963 103.886 314.751 104.397C315.539 104.902 316.447 105.154 317.475 105.154C318.503 105.154 319.41 104.902 320.198 104.397C320.986 103.886 321.602 103.138 322.045 102.153C322.494 101.162 322.719 99.9496 322.719 98.5154ZM344.961 89.0609H348.386V101.415C348.386 102.769 348.066 103.96 347.426 104.988C346.792 106.016 345.9 106.819 344.749 107.398C343.598 107.97 342.253 108.256 340.714 108.256C339.169 108.256 337.821 107.97 336.67 107.398C335.519 106.819 334.626 106.016 333.992 104.988C333.358 103.96 333.041 102.769 333.041 101.415V89.0609H336.467V101.128C336.467 101.916 336.639 102.618 336.984 103.233C337.335 103.849 337.827 104.332 338.461 104.683C339.095 105.028 339.846 105.2 340.714 105.2C341.582 105.2 342.333 105.028 342.967 104.683C343.607 104.332 344.099 103.849 344.444 103.233C344.789 102.618 344.961 101.916 344.961 101.128V89.0609ZM355.75 107.97V89.0609H362.841C364.293 89.0609 365.512 89.3317 366.497 89.8734C367.488 90.415 368.236 91.1598 368.74 92.1078C369.251 93.0495 369.507 94.1205 369.507 95.3208C369.507 96.5334 369.251 97.6106 368.74 98.5524C368.23 99.4941 367.476 100.236 366.478 100.777C365.481 101.313 364.253 101.581 362.794 101.581H358.095V98.7647H362.333C363.182 98.7647 363.878 98.617 364.419 98.3215C364.961 98.0261 365.361 97.6198 365.62 97.1028C365.884 96.5857 366.017 95.9918 366.017 95.3208C366.017 94.6499 365.884 94.059 365.62 93.5481C365.361 93.0372 364.958 92.6402 364.41 92.357C363.868 92.0677 363.17 91.9231 362.314 91.9231H359.175V107.97H355.75Z" fill="#868280"/>
</svg>
