<svg width="48" height="48" viewBox="0 0 48 48" fill="none" xmlns="http://www.w3.org/2000/svg">
<path d="M22 29.2036V32.8036C22 33.3702 22.1957 33.8369 22.587 34.2036C22.978 34.5702 23.453 34.7536 24.012 34.7536C24.5707 34.7536 25.0333 34.559 25.4 34.17C25.7667 33.781 25.95 33.3089 25.95 32.7536V29.2036H29.65C30.2057 29.2036 30.6778 29.0079 31.0665 28.6166C31.4555 28.2252 31.65 27.7522 31.65 27.1976C31.65 26.6426 31.4555 26.1714 31.0665 25.7841C30.6778 25.3971 30.2057 25.2036 29.65 25.2036H25.95V21.6036C25.95 21.0446 25.7667 20.5797 25.4 20.2091C25.0333 19.8387 24.5707 19.6536 24.012 19.6536C23.453 19.6536 22.978 19.8387 22.587 20.2091C22.1957 20.5797 22 21.0446 22 21.6036V25.2036H18.35C17.7943 25.2036 17.3222 25.4011 16.9335 25.7961C16.5445 26.1914 16.35 26.6664 16.35 27.2211C16.35 27.7761 16.5445 28.2452 16.9335 28.6286C17.3222 29.0119 17.7943 29.2036 18.35 29.2036H22ZM13 42.6221C12.0633 42.6221 11.2613 42.2872 10.594 41.6175C9.92701 40.9482 9.59351 40.1436 9.59351 39.2036V15.2536C9.59351 14.3166 9.92701 13.5146 10.594 12.8476C11.2613 12.1802 12.0633 11.8466 13 11.8466H35C35.94 11.8466 36.7448 12.1802 37.4145 12.8476C38.0838 13.5146 38.4185 14.3166 38.4185 15.2536V39.2036C38.4185 40.1436 38.0838 40.9482 37.4145 41.6175C36.7448 42.2872 35.94 42.6221 35 42.6221H13ZM13 39.2036H35V15.2536H13V39.2036ZM13.4285 8.79655C12.9475 8.79655 12.5433 8.63205 12.216 8.30305C11.8887 7.97405 11.725 7.56589 11.725 7.07855C11.725 6.59155 11.8887 6.18639 12.216 5.86305C12.5433 5.53972 12.9475 5.37805 13.4285 5.37805H34.6215C35.1025 5.37805 35.5067 5.54272 35.834 5.87205C36.1613 6.20105 36.325 6.60922 36.325 7.09655C36.325 7.58355 36.1613 7.98872 35.834 8.31205C35.5067 8.63505 35.1025 8.79655 34.6215 8.79655H13.4285Z" fill="#FF6B2B"/>
</svg>
