<svg width="48" height="48" viewBox="0 0 48 48" fill="none" xmlns="http://www.w3.org/2000/svg">
<path d="M24 25.5836C22.0413 25.5836 20.3982 24.9194 19.0705 23.5911C17.7425 22.2624 17.0785 20.6214 17.0785 18.6681C17.0785 16.7147 17.7425 15.0717 19.0705 13.7391C20.3982 12.4064 22.0413 11.7401 24 11.7401C25.9587 11.7401 27.6018 12.4064 28.9295 13.7391C30.2575 15.0717 30.9215 16.7147 30.9215 18.6681C30.9215 20.6214 30.2575 22.2624 28.9295 23.5911C27.6018 24.9194 25.9587 25.5836 24 25.5836ZM24 22.4401C25.1083 22.4401 26.0152 22.0897 26.7205 21.3891C27.4258 20.6884 27.7785 19.7814 27.7785 18.6681C27.7785 17.5547 27.4258 16.6457 26.7205 15.9411C26.0152 15.2361 25.1083 14.8836 24 14.8836C22.8917 14.8836 21.9848 15.2361 21.2795 15.9411C20.5742 16.6457 20.2215 17.5547 20.2215 18.6681C20.2215 19.7814 20.5742 20.6884 21.2795 21.3891C21.9848 22.0897 22.8917 22.4401 24 22.4401ZM24 7.26957L11.1075 12.1336V21.8446C11.1075 23.9242 11.3952 25.9124 11.9705 27.8091C12.5458 29.7061 13.3628 31.4592 14.4215 33.0686C15.9472 32.2512 17.4957 31.6382 19.067 31.2296C20.6383 30.8209 22.2837 30.6166 24.003 30.6166C25.7147 30.6166 27.3572 30.8209 28.9305 31.2296C30.5035 31.6382 32.0512 32.2512 33.5735 33.0686C34.6355 31.4592 35.4542 29.7061 36.0295 27.8091C36.6048 25.9124 36.8925 23.9242 36.8925 21.8446V12.1336L24 7.26957ZM24.0005 33.7481C22.7082 33.7481 21.4318 33.9087 20.1715 34.2301C18.9115 34.5514 17.6602 35.0334 16.4175 35.6761C17.4682 36.8187 18.6275 37.8239 19.8955 38.6916C21.1638 39.5589 22.532 40.2466 24 40.7546C25.468 40.2466 26.8362 39.5589 28.1045 38.6916C29.3725 37.8239 30.5318 36.8187 31.5825 35.6761C30.3398 35.0334 29.0885 34.5514 27.8285 34.2301C26.5685 33.9087 25.2925 33.7481 24.0005 33.7481ZM24 44.0871C23.8093 44.0871 23.6272 44.0684 23.4535 44.0311C23.2795 43.9937 23.1012 43.9377 22.9185 43.8631C18.2452 42.2964 14.5407 39.4519 11.805 35.3296C9.069 31.2069 7.701 26.7137 7.701 21.8501V12.1336C7.701 11.4126 7.90633 10.7559 8.317 10.1636C8.72733 9.57124 9.25967 9.14641 9.914 8.88907L22.8065 4.07507C23.2132 3.92574 23.611 3.85107 24 3.85107C24.389 3.85107 24.7868 3.92574 25.1935 4.07507L38.086 8.88907C38.7403 9.14641 39.2747 9.57124 39.689 10.1636C40.1037 10.7559 40.311 11.4126 40.311 12.1336V21.8501C40.311 26.7137 38.941 31.2069 36.201 35.3296C33.4613 39.4519 29.7548 42.2964 25.0815 43.8631C24.8988 43.9377 24.7205 43.9937 24.5465 44.0311C24.3728 44.0684 24.1907 44.0871 24 44.0871Z" fill="#FF6B2B"/>
</svg>
